<svg id="svg" version="1.1" xmlns="http://www.w3.org/2000/svg" xmlns:xlink="http://www.w3.org/1999/xlink" width="400" height="400" viewBox="0, 0, 400,400"><g id="svgg"><path id="path0" d="M265.366 5.759 C 260.573 10.557,252.878 18.117,223.435 46.952 C 221.216 49.125,215.440 54.796,210.600 59.554 C 180.033 89.599,163.066 106.226,162.796 106.400 C 162.625 106.510,153.961 114.986,143.542 125.235 C 133.124 135.485,123.970 144.468,123.200 145.197 C 121.241 147.053,85.068 182.526,75.500 191.973 C 66.985 200.381,67.170 200.135,68.500 201.283 C 68.995 201.710,73.726 206.321,79.013 211.530 C 87.478 219.869,118.689 250.476,125.380 257.000 C 128.239 259.787,159.895 290.787,172.150 302.800 C 176.751 307.310,182.445 312.890,184.803 315.200 C 187.162 317.510,192.851 323.092,197.446 327.604 C 205.102 335.123,229.286 358.818,250.953 380.030 C 255.768 384.744,262.312 391.165,265.497 394.300 C 268.681 397.435,271.414 400.000,271.571 400.000 C 271.727 400.000,274.714 397.075,278.207 393.500 C 281.701 389.925,288.799 382.669,293.980 377.376 C 299.161 372.082,309.880 361.130,317.800 353.037 C 325.720 344.945,332.264 338.042,332.342 337.698 C 332.425 337.331,331.430 336.084,329.942 334.689 C 328.544 333.379,319.120 324.169,309.000 314.224 C 298.880 304.279,289.880 295.458,289.000 294.623 C 288.120 293.788,282.810 288.594,277.200 283.081 C 271.590 277.567,262.673 268.814,257.385 263.628 C 252.097 258.443,239.611 246.190,229.640 236.400 C 219.668 226.610,210.765 217.901,209.855 217.047 C 205.491 212.950,192.800 200.283,192.800 200.024 C 192.800 199.749,195.906 196.668,219.816 173.227 C 239.387 154.041,250.261 143.381,267.417 126.562 C 277.088 117.081,286.170 108.190,287.600 106.804 C 289.030 105.418,298.030 96.596,307.600 87.198 C 317.170 77.801,326.665 68.503,328.700 66.536 C 330.735 64.570,332.400 62.743,332.400 62.477 C 332.400 62.049,328.909 58.383,314.800 43.998 C 308.154 37.222,283.949 12.430,277.799 6.100 C 274.539 2.745,271.676 0.027,271.436 0.059 C 271.196 0.092,268.465 2.657,265.366 5.759 " stroke="none" fill="#8c2ce4" fill-rule="evenodd"></path><path id="path1" d="M0.000 200.000 L 0.000 400.000 135.400 400.000 C 209.870 400.000,270.800 399.883,270.800 399.740 C 270.800 399.598,268.235 396.967,265.100 393.894 C 259.294 388.204,256.025 385.002,224.000 353.634 C 213.990 343.830,202.041 332.116,197.446 327.604 C 192.851 323.092,187.162 317.510,184.803 315.200 C 182.445 312.890,176.751 307.310,172.150 302.800 C 159.895 290.787,128.239 259.787,125.380 257.000 C 118.689 250.476,87.478 219.869,79.013 211.530 C 73.726 206.321,68.995 201.710,68.500 201.283 C 67.170 200.135,66.985 200.381,75.500 191.973 C 85.068 182.526,121.241 147.053,123.200 145.197 C 123.970 144.468,133.124 135.485,143.542 125.235 C 153.961 114.986,162.625 106.510,162.796 106.400 C 163.066 106.226,180.033 89.599,210.600 59.554 C 215.440 54.796,221.216 49.125,223.435 46.952 C 225.655 44.778,234.655 35.961,243.435 27.358 C 252.216 18.755,261.965 9.211,265.100 6.150 C 268.235 3.089,270.800 0.453,270.800 0.292 C 270.800 0.132,209.870 0.000,135.400 0.000 L 0.000 0.000 0.000 200.000 M274.294 2.500 C 275.654 3.875,278.329 6.620,280.240 8.600 C 283.495 11.974,306.377 35.410,314.800 43.998 C 328.909 58.383,332.400 62.049,332.400 62.477 C 332.400 62.743,330.735 64.570,328.700 66.536 C 326.665 68.503,317.170 77.801,307.600 87.198 C 298.030 96.596,289.030 105.418,287.600 106.804 C 286.170 108.190,277.088 117.081,267.417 126.562 C 250.261 143.381,239.387 154.041,219.816 173.227 C 195.906 196.668,192.800 199.749,192.800 200.024 C 192.800 200.283,205.491 212.950,209.855 217.047 C 210.765 217.901,219.668 226.610,229.640 236.400 C 239.611 246.190,252.097 258.443,257.385 263.628 C 262.673 268.814,271.590 277.567,277.200 283.081 C 282.810 288.594,288.120 293.788,289.000 294.623 C 289.880 295.458,298.880 304.279,309.000 314.224 C 319.120 324.169,328.544 333.379,329.942 334.689 C 331.430 336.084,332.425 337.331,332.342 337.698 C 332.264 338.042,325.720 344.945,317.800 353.037 C 309.880 361.130,299.161 372.082,293.979 377.376 C 288.797 382.669,281.777 389.849,278.379 393.331 C 274.981 396.813,272.125 399.738,272.033 399.831 C 271.942 399.924,300.697 400.000,335.933 400.000 L 400.000 400.000 400.000 200.000 L 400.000 0.000 335.912 0.000 L 271.823 0.000 274.294 2.500 " stroke="none" fill="#fbfbfb" fill-rule="evenodd"></path></g></svg>